<?xml version="1.0" encoding="UTF-8" standalone="no"?>
<!DOCTYPE svg PUBLIC "-//W3C//DTD SVG 1.1//EN" "http://www.w3.org/Graphics/SVG/1.1/DTD/svg11.dtd">
<svg width="100%" height="100%" viewBox="0 0 1046 447" version="1.1" xmlns="http://www.w3.org/2000/svg" xmlns:xlink="http://www.w3.org/1999/xlink" xml:space="preserve" xmlns:serif="http://www.serif.com/" style="fill-rule:evenodd;clip-rule:evenodd;stroke-linejoin:round;stroke-miterlimit:2;">
    <g transform="matrix(1.2778,0,0,0.628916,-169.768,-154.959)">
        <path d="M930.998,957.001L930.998,957.183L132.86,957.183L132.86,246.391L930.998,246.391L930.998,246.802L951.958,246.802L951.958,957.001L930.998,957.001ZM399.748,807.315L517.675,807.315L517.675,734.622L477.603,734.622L477.603,400.234L441.538,400.234L441.538,417.68C441.538,444.431 436.099,452.573 422.647,452.573L401.18,452.573L401.18,522.358L441.252,522.358L441.252,734.622L399.748,734.622L399.748,807.315ZM586.656,807.315L627.3,807.315L706.3,475.253L706.3,400.234L566.047,400.234L566.047,472.345L665.655,472.345L586.656,801.499L586.656,807.315ZM208.261,807.315L268.083,807.315C326.76,807.315 354.238,728.806 354.238,627.036L354.238,580.513C354.238,478.742 326.76,400.234 268.083,400.234L208.261,400.234L208.261,807.315ZM245.471,734.622L245.471,472.927L268.083,472.927C306.438,472.927 317.028,516.543 317.028,580.513L317.028,627.036C317.028,691.006 306.438,734.622 268.083,734.622L245.471,734.622ZM750.665,807.315L876.606,807.315L876.606,735.785L787.875,735.785L787.875,632.852L867.733,632.852L867.733,561.903L787.875,561.903L787.875,471.764L876.606,471.764L876.606,400.234L750.665,400.234L750.665,807.315Z"/>
    </g>
</svg>
