<?xml version="1.0" encoding="UTF-8" standalone="no"?>
<!DOCTYPE svg PUBLIC "-//W3C//DTD SVG 1.1//EN" "http://www.w3.org/Graphics/SVG/1.1/DTD/svg11.dtd">
<svg width="100%" height="100%" viewBox="0 0 1243 367" version="1.1" xmlns="http://www.w3.org/2000/svg" xmlns:xlink="http://www.w3.org/1999/xlink" xml:space="preserve" xmlns:serif="http://www.serif.com/" style="fill-rule:evenodd;clip-rule:evenodd;stroke-linejoin:round;stroke-miterlimit:2;">
    <g id="Layer1" transform="matrix(1,0,0,1,-611.252,-687.696)">
        <path d="M1202.49,949.84C1204.24,975.773 1226.03,996.299 1252.6,996.299C1273.56,996.299 1291.54,983.533 1299.07,965.419C1310.49,969.17 1345.97,980.806 1352.42,982.749C1335.76,1024.3 1295.13,1053.67 1247.71,1053.67C1185.46,1053.67 1134.92,1003.05 1134.92,940.697C1134.92,878.346 1185.46,827.725 1247.71,827.725C1304.5,827.725 1351.54,869.847 1359.37,924.571L1202.53,949.28L1202.48,949.28L1202.48,949.289L1202.45,949.293L1202.48,949.293L1202.48,949.632L1202.47,949.632L1202.48,949.718L1202.48,949.84L1202.49,949.84ZM1226.2,882.866C1235.49,882.866 1243.03,890.18 1243.03,899.189C1243.03,908.198 1235.49,915.512 1226.2,915.512C1216.92,915.512 1209.38,908.198 1209.38,899.189C1209.38,890.18 1216.92,882.866 1226.2,882.866Z"/>
        <path d="M1169.87,687.781L1169.87,687.761L983.604,687.761L983.604,761.208L1099.9,761.208L978.23,1053.36L1050.33,1053.46L1207.85,687.696L1169.87,687.781Z"/>
        <g transform="matrix(0.971381,0,0,1.02686,117.962,-20.1449)">
            <rect x="795.647" y="689.849" width="78.672" height="356.006"/>
        </g>
        <path d="M796.662,854.564L796.662,688.006L873.082,688.006L873.082,1053.58L796.662,1053.58L796.662,1027.41C777.031,1043.97 751.694,1053.96 724.048,1053.96C661.794,1053.96 611.252,1003.34 611.252,940.986C611.252,878.636 661.794,828.015 724.048,828.015C751.694,828.015 777.031,837.999 796.662,854.564ZM728.794,892.364C756.517,892.364 779.024,914.696 779.024,942.202C779.024,969.709 756.517,992.041 728.794,992.041C701.071,992.041 678.564,969.709 678.564,942.202C678.564,914.696 701.071,892.364 728.794,892.364Z"/>
    </g>
    <g id="Layer3" transform="matrix(1,0,0,1,-571.39,-687.696)">
        <g transform="matrix(1,0,0,1,-39.8622,0)">
            <path d="M1739.77,827.705L1740.47,827.703C1803.05,827.703 1853.85,878.421 1853.85,940.891C1853.85,1003.36 1803.05,1054.08 1740.47,1054.08C1739.16,1054.08 1737.86,1054.06 1736.57,1054.01L1551.7,1054.01C1550.41,1054.06 1549.11,1054.08 1547.8,1054.08C1485.22,1054.08 1434.41,1003.36 1434.41,940.892C1434.41,878.423 1485.22,827.706 1547.8,827.706C1548.12,827.706 1548.44,827.707 1548.76,827.71L1548.76,827.694L1739.77,827.694L1739.77,827.705Z"/>
        </g>
        <g transform="matrix(1,0,0,1,-26.1455,19.2426)">
            <path d="M1570.63,872.257L1570.63,956.519L1578.69,956.519C1580.17,956.519 1581.23,956.795 1581.85,957.347C1582.48,957.898 1582.79,958.63 1582.79,959.542C1582.79,960.405 1582.48,961.125 1581.85,961.7C1581.23,962.276 1580.17,962.564 1578.69,962.564L1564.51,962.564L1564.51,950.547C1557.51,960.141 1548.61,964.938 1537.82,964.938C1532.35,964.938 1527.11,963.487 1522.09,960.585C1517.08,957.683 1513.12,953.545 1510.22,948.172C1507.32,942.799 1505.87,937.259 1505.87,931.55C1505.87,925.793 1507.32,920.241 1510.22,914.892C1513.12,909.543 1517.08,905.405 1522.09,902.479C1527.11,899.553 1532.37,898.09 1537.89,898.09C1548.44,898.09 1557.32,902.887 1564.51,912.481L1564.51,878.373L1556.45,878.373C1554.96,878.373 1553.91,878.085 1553.29,877.51C1552.66,876.934 1552.35,876.191 1552.35,875.279C1552.35,874.416 1552.66,873.696 1553.29,873.12C1553.91,872.545 1554.96,872.257 1556.45,872.257L1570.63,872.257ZM1564.51,931.55C1564.51,923.874 1561.92,917.398 1556.74,912.121C1551.56,906.844 1545.39,904.206 1538.25,904.206C1531.05,904.206 1524.86,906.844 1519.68,912.121C1514.5,917.398 1511.91,923.874 1511.91,931.55C1511.91,939.177 1514.5,945.642 1519.68,950.943C1524.86,956.243 1531.05,958.894 1538.25,958.894C1545.39,958.894 1551.56,956.243 1556.74,950.943C1561.92,945.642 1564.51,939.177 1564.51,931.55Z" style="fill:white;fill-rule:nonzero;stroke:white;stroke-width:1px;"/>
            <path d="M1662.16,932.845L1600.56,932.845C1601.62,940.665 1604.89,946.961 1610.38,951.734C1615.88,956.507 1622.68,958.894 1630.78,958.894C1635.29,958.894 1640.02,958.15 1644.96,956.663C1649.9,955.176 1653.93,953.209 1657.05,950.763C1657.96,950.043 1658.75,949.683 1659.42,949.683C1660.19,949.683 1660.86,949.983 1661.44,950.583C1662.01,951.182 1662.3,951.89 1662.3,952.706C1662.3,953.521 1661.92,954.313 1661.15,955.08C1658.85,957.479 1654.76,959.721 1648.88,961.808C1643.01,963.895 1636.97,964.938 1630.78,964.938C1620.42,964.938 1611.78,961.544 1604.84,954.756C1597.91,947.968 1594.44,939.753 1594.44,930.111C1594.44,921.332 1597.69,913.8 1604.2,907.516C1610.7,901.232 1618.74,898.09 1628.34,898.09C1638.22,898.09 1646.35,901.316 1652.73,907.768C1659.11,914.22 1662.25,922.579 1662.16,932.845ZM1656.04,926.729C1654.84,920.061 1651.69,914.64 1646.58,910.466C1641.47,906.293 1635.39,904.206 1628.34,904.206C1621.29,904.206 1615.22,906.269 1610.13,910.394C1605.05,914.52 1601.88,919.965 1600.63,926.729L1656.04,926.729Z" style="fill:white;fill-rule:nonzero;stroke:white;stroke-width:1px;"/>
            <path d="M1723.18,962.564L1712.96,962.564L1688.13,906.365L1681.95,906.365C1680.51,906.365 1679.48,906.077 1678.85,905.501C1678.23,904.926 1677.92,904.182 1677.92,903.271C1677.92,902.407 1678.23,901.688 1678.85,901.112C1679.48,900.536 1680.51,900.248 1681.95,900.248L1704.61,900.248C1706.05,900.248 1707.08,900.536 1707.71,901.112C1708.33,901.688 1708.64,902.431 1708.64,903.343C1708.64,904.206 1708.33,904.926 1707.71,905.501C1707.08,906.077 1706.05,906.365 1704.61,906.365L1694.61,906.365L1716.77,956.519L1719.44,956.519L1741.17,906.365L1731.09,906.365C1729.65,906.365 1728.62,906.077 1728,905.501C1727.38,904.926 1727.06,904.182 1727.06,903.271C1727.06,902.407 1727.38,901.688 1728,901.112C1728.62,900.536 1729.65,900.248 1731.09,900.248L1753.83,900.248C1755.32,900.248 1756.36,900.536 1756.96,901.112C1757.56,901.688 1757.86,902.431 1757.86,903.343C1757.86,904.206 1757.56,904.926 1756.96,905.501C1756.36,906.077 1755.32,906.365 1753.83,906.365L1747.72,906.365L1723.18,962.564Z" style="fill:white;fill-rule:nonzero;stroke:white;stroke-width:1px;"/>
        </g>
    </g>
    <g transform="matrix(1,0,0,1,-438.554,-637.311)">
        <g id="Layer4">
            <ellipse cx="1224.25" cy="899.18" rx="16.905" ry="16.945"/>
        </g>
    </g>
</svg>
