<?xml version="1.0" encoding="UTF-8" standalone="no"?>
<!DOCTYPE svg PUBLIC "-//W3C//DTD SVG 1.1//EN" "http://www.w3.org/Graphics/SVG/1.1/DTD/svg11.dtd">
<svg width="100%" height="100%" viewBox="0 0 1024 1024" version="1.1" xmlns="http://www.w3.org/2000/svg" xml:space="preserve" style="fill-rule:evenodd;clip-rule:evenodd;stroke-linejoin:round;stroke-miterlimit:2;">
    <path d="M510.133,22.092C779.554,22.092 998.29,240.828 998.29,510.25C998.29,779.671 779.554,998.407 510.133,998.407C240.711,998.407 21.975,779.671 21.975,510.25C21.975,240.828 240.711,22.092 510.133,22.092ZM411.585,546.341L411.585,329.82L510.931,329.82L510.931,805.054L411.585,805.054L411.585,771.037C386.066,792.571 353.129,805.55 317.189,805.55C236.26,805.55 170.557,739.743 170.557,658.689C170.557,577.634 236.26,511.828 317.189,511.828C353.129,511.828 386.066,524.807 411.585,546.341ZM681.857,632.328L681.967,632.072L664.019,632.113L664.019,632.103L575.999,632.103L575.999,666.811L630.956,666.811L583.247,781.368L573.029,805.079L609.142,805.079L683.585,632.328L681.857,632.328ZM562.031,632.328L525.918,632.328L525.918,805.079L562.031,805.079L562.031,632.328ZM717.026,725.24C718.348,744.789 734.769,760.261 754.804,760.261C770.604,760.261 784.157,750.639 789.828,736.984C798.439,739.811 825.183,748.583 830.049,750.047C817.484,781.368 786.862,803.508 751.117,803.508C704.189,803.508 666.09,765.349 666.09,718.348C666.09,671.347 704.189,633.188 751.117,633.188C793.924,633.188 829.385,664.941 835.282,706.192L717.059,724.818L717.02,724.818L717.02,724.824L716.999,724.828L717.02,724.828L717.02,725.083L717.015,725.083L717.02,725.24L717.026,725.24ZM323.359,595.48C359.398,595.48 388.657,624.511 388.657,660.269C388.657,696.028 359.398,725.059 323.359,725.059C287.32,725.059 258.06,696.028 258.06,660.269C258.06,624.511 287.32,595.48 323.359,595.48ZM734.902,674.754C741.901,674.754 747.583,680.268 747.583,687.059C747.583,693.85 741.901,699.363 734.902,699.363C727.903,699.363 722.221,693.85 722.221,687.059C722.221,680.268 727.903,674.754 734.902,674.754Z"/>
</svg>
